<svg width="48" height="48" viewBox="0 0 48 48" fill="none" xmlns="http://www.w3.org/2000/svg">
<g clip-path="url(#clip0_5_35)">
<path d="M42.0224 42.0225C41.3612 42.6837 40.9855 43.5146 40.8663 44.3754L30.9353 34.4442L34.4442 30.9353L44.3753 40.8663C43.5154 40.9863 42.6837 41.3612 42.0224 42.0225Z" fill="white"/>
<path d="M43.8622 47.9976C46.1461 47.9976 47.9976 46.1461 47.9976 43.8622C47.9976 41.5782 46.1461 39.7268 43.8622 39.7268C41.5783 39.7268 39.7268 41.5782 39.7268 43.8622C39.7268 46.1461 41.5783 47.9976 43.8622 47.9976Z" fill="#9146FF"/>
<path d="M34 27.9988L7.01794 1.16944L0 0L1.17019 7.01794L28.1515 33.8473L34 27.9988Z" fill="url(#paint0_linear_5_35)"/>
<path d="M5.9776 42.0224C6.63882 42.6836 7.01457 43.5145 7.13372 44.3753L17.0648 34.4442L13.5558 30.9353L3.62476 40.8662C4.48463 40.9862 5.31629 41.3611 5.9776 42.0224Z" fill="white"/>
<path d="M4.13541 47.9976C6.41933 47.9976 8.27081 46.1461 8.27081 43.8622C8.27081 41.5782 6.41933 39.7268 4.13541 39.7268C1.85148 39.7268 0 41.5782 0 43.8622C0 46.1461 1.85148 47.9976 4.13541 47.9976Z" fill="#9146FF"/>
<path d="M19.0626 34.7868L13.2131 28.9374L40.982 1.16944L47.9999 0L46.8306 7.01794L19.0626 34.7868Z" fill="url(#paint1_linear_5_35)"/>
<path d="M29.8278 38.0159L38.0159 29.8278V26.3188H34.507L26.3188 34.5069V38.0159H29.8278Z" fill="#9146FF"/>
<path d="M18.1722 38.0159L9.98413 29.8278V26.3188H13.4931L21.6812 34.5069V38.0159H18.1722Z" fill="#9146FF"/>
</g>
<defs>
<linearGradient id="paint0_linear_5_35" x1="13.4527" y1="10.5026" x2="43.3463" y2="44.6334" gradientUnits="userSpaceOnUse">
<stop stop-color="white"/>
<stop offset="1" stop-color="#C5C9F7"/>
</linearGradient>
<linearGradient id="paint1_linear_5_35" x1="26.9771" y1="10.7941" x2="48.239" y2="32.0543" gradientUnits="userSpaceOnUse">
<stop stop-color="white"/>
<stop offset="1" stop-color="#C5C9F7"/>
</linearGradient>
<clipPath id="clip0_5_35">
<rect width="48" height="48" fill="white"/>
</clipPath>
</defs>
</svg>
