<svg width="42" height="48" viewBox="0 0 42 48" fill="none" xmlns="http://www.w3.org/2000/svg">
<g clip-path="url(#clip0_5_26)">
<path d="M39.8758 25.112L37.8865 25.6649V31.2914C37.8868 32.1495 37.8217 33.0064 37.6919 33.8548L39.4079 33.1509C40.1748 32.8363 40.8306 32.3018 41.292 31.6152C41.7535 30.9287 41.9999 30.121 41.9999 29.2947V26.7187C41.9999 26.4614 41.9402 26.2076 41.8254 25.9771C41.7105 25.7466 41.5438 25.5457 41.3381 25.3901C41.1324 25.2345 40.8934 25.1284 40.6397 25.0802C40.386 25.0319 40.1246 25.0428 39.8758 25.112Z" fill="url(#paint0_linear_5_26)"/>
<path d="M4.11169 31.2914V25.6649L2.12406 25.1119C1.87531 25.0428 1.61387 25.0319 1.3602 25.0802C1.10653 25.1284 0.867502 25.2345 0.661812 25.3901C0.456122 25.5457 0.28935 25.7466 0.174538 25.9771C0.0597267 26.2076 -1.033e-05 26.4614 9.16865e-09 26.7187V29.2947C-5.48542e-05 30.1207 0.24611 30.9282 0.707275 31.6146C1.16844 32.3011 1.82383 32.8356 2.59031 33.1505L4.3063 33.8544C4.17631 33.0062 4.11125 32.1494 4.11169 31.2914Z" fill="url(#paint1_linear_5_26)"/>
<path d="M31.0305 14.0027C27.764 14.9167 24.3924 15.4052 20.9999 15.4561C17.6074 15.4052 14.2358 14.9167 10.9693 14.0027C10.2364 21.4503 4.11157 25.6647 4.11157 25.6647V31.2912C4.14296 35.7334 5.93605 39.983 9.09974 43.1132C12.2634 46.2433 16.541 47.9999 20.9995 47.9999C25.4579 47.9999 29.7355 46.2433 32.8992 43.1132C36.0629 39.983 37.856 35.7334 37.8874 31.2912V25.6647C37.8874 25.6647 31.7634 21.4503 31.0305 14.0027Z" fill="url(#paint2_linear_5_26)"/>
<path d="M20.9999 15.4561C17.6074 15.4053 14.2358 14.9168 10.9693 14.0028C10.2364 21.4504 4.11161 25.6648 4.11161 25.6648C4.11161 25.6648 -3.61455 5.91889 10.4294 5.33131C10.4294 5.33131 13.2558 -3.94365 29.0843 1.97346C44.4718 7.72501 39.698 22.5422 37.8882 25.6648C37.8882 25.6648 31.7634 21.4504 31.0305 14.0028C27.764 14.9168 24.3924 15.4053 20.9999 15.4561Z" fill="#9146FF"/>
<path d="M10.0625 33.8547C10.642 36.3115 12.0377 38.5012 14.0231 40.0684C16.0085 41.6356 18.4671 42.4884 21.0001 42.4884C23.533 42.4884 25.9916 41.6356 27.977 40.0684C29.9624 38.5012 31.3581 36.3115 31.9376 33.8547H10.0625Z" fill="#0E0E0E"/>
<path d="M29.0736 39.0679C28.028 40.149 26.7744 41.009 25.3878 41.5966C24.0011 42.1841 22.5098 42.4871 21.003 42.4875C19.4962 42.4879 18.0047 42.1856 16.6178 41.5988C15.2308 41.012 13.9768 40.1527 12.9307 39.0721C12.9307 39.0721 15.9357 37.4207 21.0042 37.4207C25.9178 37.4207 28.8936 38.972 29.0736 39.0679Z" fill="#9146FF"/>
<path d="M11.9509 26.1891C11.806 26.1893 11.6644 26.1467 11.5439 26.0667C11.4233 25.9867 11.3293 25.8728 11.2738 25.7395C11.2182 25.6063 11.2036 25.4596 11.2317 25.318C11.2599 25.1765 11.3295 25.0464 11.4319 24.9443C12.3081 24.1999 13.4219 23.791 14.5734 23.791C15.7249 23.791 16.8387 24.1999 17.7149 24.9443C17.8487 25.0816 17.9229 25.2658 17.9217 25.4572C17.9205 25.6486 17.8439 25.8318 17.7083 25.9674C17.5728 26.103 17.3893 26.1802 17.1972 26.1823C17.0052 26.1844 16.82 26.1112 16.6816 25.9785C16.0816 25.5076 15.3402 25.2511 14.5764 25.2504C13.8126 25.2496 13.0707 25.5046 12.4698 25.9743C12.4018 26.0424 12.3209 26.0965 12.2319 26.1333C12.1428 26.1702 12.0473 26.1891 11.9509 26.1891Z" fill="#0E0E0E"/>
<path d="M30.0492 26.1889C29.8569 26.1898 29.672 26.1149 29.5349 25.9804C28.9341 25.5086 28.1914 25.252 27.4265 25.252C26.6616 25.252 25.9189 25.5086 25.3181 25.9804C25.1796 26.113 24.9944 26.1861 24.8023 26.184C24.6103 26.1818 24.4268 26.1046 24.2913 25.9689C24.1558 25.8332 24.0793 25.65 24.0781 25.4586C24.077 25.2672 24.1513 25.083 24.2852 24.9458C25.1613 24.2012 26.2752 23.7922 27.4267 23.7922C28.5782 23.7922 29.6921 24.2012 30.5682 24.9458C30.6704 25.0479 30.74 25.1779 30.768 25.3194C30.7961 25.4609 30.7814 25.6075 30.7259 25.7407C30.6703 25.8739 30.5764 25.9876 30.456 26.0676C30.3355 26.1477 30.194 26.1903 30.0492 26.1902V26.1889Z" fill="#0E0E0E"/>
</g>
<defs>
<linearGradient id="paint0_linear_5_26" x1="39.3964" y1="27.7825" x2="43.6451" y2="29.8612" gradientUnits="userSpaceOnUse">
<stop stop-color="white"/>
<stop offset="1" stop-color="#C5C9F7"/>
</linearGradient>
<linearGradient id="paint1_linear_5_26" x1="1.70386" y1="27.7823" x2="5.95141" y2="29.8598" gradientUnits="userSpaceOnUse">
<stop stop-color="white"/>
<stop offset="1" stop-color="#C5C9F7"/>
</linearGradient>
<linearGradient id="paint2_linear_5_26" x1="17.4755" y1="24.5519" x2="38.2544" y2="45.1937" gradientUnits="userSpaceOnUse">
<stop stop-color="white"/>
<stop offset="1" stop-color="#C5C9F7"/>
</linearGradient>
<clipPath id="clip0_5_26">
<rect width="42" height="48" fill="white"/>
</clipPath>
</defs>
</svg>
